<svg width="32" height="32" viewBox="0 0 32 32" fill="none" xmlns="http://www.w3.org/2000/svg">
<rect width="32" height="32" fill="black"/>
<path fill-rule="evenodd" clip-rule="evenodd" d="M25.033 9.03721C26.9512 8.66997 26.9512 8.66993 27.7062 9.14008L28.0047 9.32306C28.3221 9.52894 28.5785 9.70948 28.1379 9.97272C27.8095 10.0983 27.4809 10.1774 27.1375 10.2477L26.9296 10.2917C26.7073 10.3387 26.4848 10.3849 26.2623 10.4309C26.1081 10.4633 25.9539 10.4957 25.7997 10.5282C25.4967 10.5919 25.1936 10.6553 24.8904 10.7184C24.5629 10.7867 24.2357 10.8563 23.9086 10.9269C22.5866 11.2113 21.2567 11.4503 19.9252 11.6859L20.0503 11.8008L20.2093 11.9554L20.3691 12.107C20.7638 12.6912 19.7211 13.3969 19.3356 13.7614C19.1068 13.981 18.9022 14.2721 18.7 14.5162L18.5183 14.7172C18.0047 15.3489 17.999 15.2804 17.6166 15.9933C17.8548 15.6742 18.0939 15.4718 18.3104 15.1761C18.5859 14.8396 18.8788 14.528 19.1829 14.2173C19.3517 14.0337 19.5202 13.8499 19.688 13.6653C19.8241 13.5311 19.792 13.4704 19.918 13.46C19.9337 13.396 19.9815 13.3927 19.9976 13.3267C22.2591 11.1416 22.2592 11.1416 23.0657 12.0603L23.2104 12.1949C23.6906 12.6537 23.4151 13.135 23.3198 13.5747C23.4366 13.3955 23.54 13.2429 23.9988 12.7378C25.5118 11.2252 25.5118 11.2252 26.3187 11.8714C26.5704 12.1331 26.8964 12.8658 26.1875 13.703L26.1551 13.7413C25.3071 14.7428 24.0245 16.2982 22.0744 19.8793C21.9556 20.0975 21.6626 20.1202 21.5366 20.1306C21.1144 19.0944 21.8419 16.6619 22.4722 15.6839C21.668 16.1875 20.9594 17.1379 20.5507 17.8465C20.0624 18.7365 19.8356 19.1075 19.2165 18.3118C18.8704 17.7071 19.224 16.6525 19.3356 15.9933C18.8502 16.4833 18.1346 17.2993 17.7485 17.8713C17.6106 18.0738 17.4675 18.2719 17.324 18.4704L17.3232 18.4715C16.9955 19.0187 16.7885 19.449 16.5743 19.9957C16.5131 20.1499 16.4518 20.3041 16.3905 20.4582L16.297 20.6938C16.1086 21.1476 15.8745 21.6236 15.4115 21.1367C14.7676 20.0521 14.9638 18.8812 15.4147 17.7584C15.0185 18.0669 14.6339 18.3873 14.2516 18.7129C14.0816 18.8565 13.9095 18.9966 13.7361 19.1359C13.4232 19.4037 13.1494 19.6924 12.8712 19.995L12.6409 20.2317C12.4507 20.4281 12.2647 20.6271 12.0795 20.8283C11.268 21.6965 10.5635 22.0641 10.0766 20.7322C10.0337 20.4602 10.0415 20.2075 10.046 19.9311C10.064 19.6043 10.064 19.6043 9.96204 19.3482C9.89993 18.8631 9.84596 18.378 9.91286 17.8914C9.99273 17.6149 9.99272 17.6149 9.82143 17.6496L9.71622 17.9116C9.59947 18.0806 9.47932 18.2472 9.3571 18.4123L9.16167 18.6776C9.05112 18.8228 8.93802 18.9663 8.81978 19.1053C8.69113 19.2571 8.58232 19.4111 8.47392 19.5777C8.31676 19.8145 8.1536 20.0429 7.97979 20.2678C7.70881 20.619 7.45671 20.9811 7.20862 21.3487L7.0072 21.6464C6.73775 22.0723 6.49863 22.5129 6.26045 22.9567C5.35642 24.6235 5.35641 24.6234 4.80153 23.7007L4.66839 23.4821C4.61088 23.0261 4.85793 22.6825 5.06511 22.2856C5.1207 22.1615 5.17529 22.0369 5.22852 21.9118C5.91749 20.3495 6.9268 18.9116 7.87343 17.4975C8.41508 16.6805 8.9156 15.8462 9.3454 14.9653L9.43958 14.7908C9.98054 13.7754 9.86323 13.1151 8.61654 13.1011C8.33437 13.1196 8.05472 13.1473 7.77373 13.1789C7.56792 13.1989 7.36207 13.2187 7.15621 13.2382L6.84567 13.2686C6.38716 13.3104 5.92842 13.3379 5.46862 13.3611L5.23041 13.3747C4.47583 13.4117 3.35407 12.8328 3.50737 11.8998C4.00716 11.741 4.50848 11.668 5.02932 11.612L5.2553 11.5864C5.50251 11.5585 5.74983 11.5315 5.99714 11.5045C6.17326 11.4848 6.34939 11.4651 6.52551 11.4454C7.10912 11.3804 7.69289 11.3166 8.27667 11.2531L8.59501 11.2185C9.66851 11.1018 10.7421 10.9861 11.8158 10.8713C12.2133 10.8288 12.6109 10.7862 13.0084 10.7436C13.2112 10.7219 13.414 10.7002 13.6167 10.6787C14.9145 10.5404 16.21 10.3933 17.5035 10.219L17.7403 10.1873C20.1801 9.86002 22.6166 9.50939 25.033 9.03721ZM15.344 13.8372C14.4833 13.9082 13.6249 14.7751 13.0583 15.3558L12.8865 15.5145C12.1987 16.2281 10.7412 18.6282 11.1961 19.6897C11.8141 19.373 11.8142 19.3729 12.142 18.8517L12.3259 18.7732C12.4618 18.5954 12.5946 18.4151 12.7254 18.2336C12.8673 18.055 13.0099 17.877 13.1531 17.6995C13.6014 17.137 13.9975 16.5599 14.3672 15.9434C14.4527 15.8011 14.5396 15.6595 14.6275 15.5186C15.1542 14.7296 15.1542 14.7296 15.344 13.8372ZM19.3053 11.8637C19.2917 11.6998 17.7067 11.956 17.2009 12.0377C17.1395 12.0477 17.094 12.055 17.0692 12.0588C16.4884 12.1454 15.9071 12.2267 15.3254 12.3037C15.3518 12.308 15.3776 12.3138 15.4031 12.321C15.7207 12.4117 15.9722 12.7329 16.3738 13.2456L16.5348 13.4183C16.7608 13.758 16.7759 14.0864 16.7301 14.483C16.9652 14.3403 17.0758 14.2263 17.2467 14.0168C17.4919 13.722 17.7491 13.4472 18.0177 13.1734C18.2093 12.9633 18.4003 12.7527 18.5906 12.5414C18.6839 12.4447 18.7299 12.3971 18.7791 12.3529C18.8267 12.3101 18.8774 12.2704 18.9771 12.1924C19.0742 12.134 19.1171 12.1082 19.1309 12.0715C19.1418 12.0425 19.1346 12.0065 19.1215 11.9422L19.3053 11.8637ZM14.8369 12.3674C14.1249 12.459 13.4122 12.545 12.6987 12.6278C12.5054 12.6504 12.3121 12.6735 12.1188 12.6967C11.8879 12.7242 11.6568 12.7505 11.4256 12.7755L11.1266 12.8108L10.8666 12.8397C10.5252 12.9415 10.87 13.3092 11.0895 13.5434C11.1366 13.5936 11.178 13.6378 11.2055 13.6718L11.3524 13.913C11.6836 13.818 11.7098 13.7759 11.8677 13.5221L11.8813 13.5002L11.8884 13.4888C12.2723 13.4571 12.136 13.8878 12.0671 14.1058L12.0666 14.1075L12.2292 13.9944C13.5673 13.0697 14.3221 12.548 14.8369 12.3674Z" fill="white"/>
<path fill-rule="evenodd" clip-rule="evenodd" d="M24.8951 18.2612C25.1364 18.2612 25.3184 18.3225 25.4411 18.445C25.566 18.5654 25.6284 18.7386 25.6284 18.9646V19.9913H25.2793L25.2656 19.7121C25.2462 19.7558 25.2202 19.7961 25.1872 19.8329C25.1343 19.8942 25.0655 19.9427 24.9808 19.9786C24.8962 20.0124 24.8009 20.0293 24.6951 20.0293C24.5195 20.0293 24.3776 19.9892 24.2697 19.9089C24.1618 19.8266 24.1078 19.7125 24.1078 19.5667C24.1078 19.421 24.1533 19.3069 24.2443 19.2245C24.3353 19.1421 24.474 19.0829 24.6602 19.047L25.2221 18.9362C25.2221 18.8157 25.1946 18.726 25.1395 18.6668C25.0845 18.6056 25.0031 18.5749 24.8951 18.5749C24.7978 18.5749 24.7205 18.5981 24.6634 18.6446C24.6083 18.689 24.5702 18.7534 24.5491 18.8379L24.1363 18.8189C24.1702 18.6393 24.2528 18.502 24.384 18.407C24.5152 18.3098 24.6856 18.2612 24.8951 18.2612ZM24.784 19.3006C24.693 19.3196 24.6274 19.3481 24.5872 19.3861C24.5491 19.422 24.53 19.4695 24.53 19.5287C24.53 19.5942 24.5512 19.6449 24.5935 19.6808C24.638 19.7167 24.7004 19.7347 24.7808 19.7347C24.8718 19.7347 24.9502 19.7167 25.0158 19.6808C25.0814 19.6449 25.1322 19.5952 25.1681 19.5318C25.2041 19.4685 25.2221 19.3935 25.2221 19.3069V19.2118L24.784 19.3006Z" fill="white"/>
<path d="M26.2005 19.9913H25.7942V18.2992H26.2005V19.9913Z" fill="white"/>
<path d="M26.21 18.0742H25.7878V17.713H26.21V18.0742Z" fill="white"/>
</svg>
