<svg width="100" height="100" viewBox="0 0 100 100" fill="none" xmlns="http://www.w3.org/2000/svg">
<rect width="100" height="100" fill="black"/>
<path fill-rule="evenodd" clip-rule="evenodd" d="M86.4601 30.6787C91.3644 29.7338 91.3645 29.7337 93.2947 30.9433L94.058 31.4141C94.8694 31.9438 95.5251 32.4083 94.3985 33.0856C93.5589 33.4086 92.7188 33.6123 91.8408 33.7931L91.3091 33.9065C90.7408 34.0273 90.1719 34.146 89.6031 34.2646C89.2089 34.3479 88.8146 34.4313 88.4204 34.5148C87.6457 34.6787 86.8707 34.8418 86.0956 35.0042C85.2582 35.1799 84.4215 35.3589 83.5854 35.5407C80.2054 36.2725 76.8051 36.8873 73.4009 37.4934L73.7207 37.7891L74.1273 38.1868L74.5357 38.5769C75.5449 40.08 72.879 41.8957 71.8932 42.8335C71.3085 43.3987 70.7854 44.1475 70.2684 44.7756L69.8038 45.2927C68.4905 46.918 68.4759 46.7419 67.4982 48.5761C68.1072 47.7548 68.7186 47.2342 69.2722 46.4733C69.9765 45.6076 70.7255 44.8061 71.503 44.0066C71.9345 43.5342 72.3655 43.0612 72.7944 42.5863C73.1424 42.2411 73.0602 42.085 73.3824 42.0582C73.4224 41.8935 73.5446 41.8848 73.5859 41.7151C79.368 36.0929 79.3682 36.093 81.4302 38.4568L81.8001 38.803C83.028 39.9835 82.3236 41.2218 82.0799 42.3532C82.3786 41.8921 82.6429 41.4994 83.816 40.1999C87.6843 36.3082 87.6843 36.3082 89.7474 37.9707C90.3907 38.6441 91.2241 40.5294 89.4119 42.6834L89.329 42.7818C87.1609 45.3585 83.8817 49.3605 78.8959 58.5743C78.592 59.1358 77.8431 59.1941 77.5207 59.2209C76.4415 56.5547 78.3011 50.2962 79.9126 47.7797C77.8566 49.0756 76.0449 51.521 75.0001 53.3441C73.7516 55.6339 73.1717 56.5884 71.5888 54.5412C70.704 52.9855 71.6081 50.272 71.8932 48.5761C70.6523 49.8366 68.8227 51.9363 67.8355 53.4079C67.483 53.9288 67.117 54.4385 66.7502 54.9493L66.7481 54.9521C65.9103 56.3601 65.3811 57.4672 64.8336 58.8738C64.6771 59.2705 64.5203 59.6672 64.3635 60.0638L64.1243 60.67C63.6427 61.8375 63.0442 63.0622 61.8605 61.8096C60.2141 59.0188 60.716 56.0062 61.8688 53.1174C60.8557 53.9112 59.8725 54.7356 58.8949 55.5731C58.4603 55.9426 58.0204 56.303 57.5769 56.6615C56.7769 57.3506 56.0769 58.0933 55.3657 58.8719L54.7768 59.4809C54.2904 59.9864 53.815 60.4984 53.3415 61.0158C51.2666 63.2498 49.4653 64.1955 48.2206 60.7686C48.1108 60.069 48.1309 59.4187 48.1424 58.7075C48.1883 57.8668 48.1882 57.8668 47.9276 57.2077C47.7688 55.9597 47.631 54.7115 47.802 53.4598C48.0062 52.7482 48.0061 52.7482 47.5682 52.8375L47.2991 53.5117C47.0006 53.9464 46.6935 54.3752 46.381 54.7999L45.8813 55.4825C45.5986 55.8561 45.3095 56.2252 45.0073 56.583C44.6784 56.9736 44.4 57.3697 44.1229 57.7983C43.721 58.4074 43.3039 58.9952 42.8595 59.5737C42.1667 60.4773 41.5222 61.4092 40.8879 62.3549L40.373 63.1209C39.6841 64.2166 39.0726 65.3502 38.4637 66.4922C36.1523 70.7805 36.1523 70.7805 34.7336 68.4065L34.3933 67.844C34.2462 66.6708 34.8777 65.7865 35.4075 64.7653C35.5496 64.4461 35.6892 64.1256 35.8253 63.8037C37.5868 59.7841 40.1674 56.0844 42.5877 52.4462C43.9725 50.344 45.2522 48.1974 46.3511 45.9309L46.5919 45.482C47.975 42.8696 47.675 41.1706 44.4876 41.1346C43.7662 41.1821 43.0512 41.2535 42.3328 41.3348C41.8066 41.3863 41.2803 41.4373 40.754 41.4875L39.9599 41.5655C38.7876 41.6731 37.6148 41.744 36.4393 41.8037L35.8302 41.8387C33.901 41.9338 31.033 40.4443 31.4248 38.0438C32.7026 37.6352 33.9844 37.4474 35.3161 37.3032L35.8939 37.2374C36.5259 37.1658 37.1583 37.0962 37.7905 37.0266C38.2408 36.9761 38.6912 36.9254 39.1414 36.8747C40.6336 36.7073 42.1261 36.5432 43.6186 36.3799L44.4326 36.2908C47.1772 35.9908 49.922 35.6929 52.6671 35.3976C53.6835 35.2883 54.7 35.1786 55.7164 35.069C56.2347 35.0131 56.7533 34.9575 57.2717 34.9019C60.5897 34.5463 63.9021 34.1676 67.2091 33.7193L67.8145 33.6379C74.0525 32.7957 80.2821 31.8936 86.4601 30.6787ZM61.6879 43.0285C59.4873 43.2111 57.2927 45.4417 55.8439 46.9358L55.4048 47.3441C53.646 49.1801 49.9198 55.3553 51.0828 58.0865C52.663 57.2715 52.6632 57.2714 53.5013 55.9302L53.9713 55.7283C54.3189 55.2709 54.6584 54.8071 54.9929 54.34C55.3558 53.8806 55.7203 53.4223 56.0865 52.9657C57.2326 51.5186 58.2454 50.0338 59.1905 48.4476C59.4092 48.0814 59.6314 47.7172 59.856 47.3545C61.2026 45.3245 61.2027 45.3245 61.6879 43.0285ZM71.816 37.9509C71.781 37.5292 67.7286 38.1885 66.4356 38.3988C66.2787 38.4243 66.1624 38.4432 66.0989 38.4528C64.6139 38.6758 63.1277 38.8847 61.6404 39.083C61.7078 39.094 61.774 39.109 61.839 39.1276C62.651 39.3608 63.2941 40.1872 64.3207 41.5063L64.7325 41.9509C65.3102 42.8249 65.349 43.6697 65.2318 44.69C65.8329 44.323 66.1156 44.0296 66.5527 43.4905C67.1794 42.7322 67.837 42.0251 68.5238 41.3205C69.0137 40.7801 69.5019 40.2382 69.9884 39.6946C70.2271 39.4458 70.3449 39.3234 70.4705 39.2098C70.5924 39.0994 70.7218 38.9974 70.9768 38.7966C71.2249 38.6464 71.3346 38.58 71.3699 38.4856C71.3979 38.4108 71.3793 38.3183 71.3459 38.1528L71.816 37.9509ZM60.3914 39.2471C58.5711 39.4827 56.7488 39.704 54.9246 39.917C54.4303 39.9752 53.9361 40.0344 53.442 40.0941C52.8516 40.1649 52.2607 40.2327 51.6696 40.2969L50.9051 40.3879L50.2404 40.462C49.3676 40.7239 50.249 41.67 50.8103 42.2724C50.9308 42.4018 51.0366 42.5155 51.107 42.603L51.4825 43.2236C52.3292 42.9793 52.3963 42.8708 52.7998 42.2179L52.8348 42.1617L52.853 42.132C53.8344 42.0506 53.4859 43.1588 53.3096 43.7197L53.3084 43.724L53.7242 43.433C57.1453 41.0538 59.0751 39.7116 60.3914 39.2471Z" fill="white"/>
<path fill-rule="evenodd" clip-rule="evenodd" d="M18.9188 54.2007C19.3401 54.2007 19.6857 54.3064 19.9557 54.5177C20.2311 54.7236 20.4336 54.9973 20.5632 55.3386C20.6982 55.6799 20.7658 56.0539 20.7658 56.4603C20.7658 56.8666 20.6982 57.2405 20.5632 57.5818C20.4336 57.9232 20.2311 58.1997 19.9557 58.411C19.6857 58.6168 19.34 58.7198 18.9188 58.7198C18.7028 58.7198 18.5003 58.6818 18.3113 58.6059C18.1223 58.5301 17.9603 58.4244 17.8252 58.2889C17.7544 58.212 17.6953 58.1275 17.647 58.036V59.8414H16.7884V54.2983H17.5984L17.6155 54.9592C17.7232 54.7451 17.8715 54.5763 18.0602 54.4528C18.3086 54.2849 18.5948 54.2007 18.9188 54.2007ZM18.7648 54.9485C18.5381 54.9485 18.341 55.0054 18.1736 55.1191C18.0061 55.2275 17.8766 55.3956 17.7848 55.6231C17.6929 55.8507 17.647 56.1298 17.647 56.4603C17.647 56.7908 17.6902 57.0699 17.7766 57.2974C17.8684 57.525 17.998 57.6956 18.1654 57.8094C18.3382 57.9178 18.538 57.9721 18.7648 57.9721C19.1105 57.9721 19.3806 57.8393 19.575 57.5738C19.7748 57.3083 19.8747 56.9371 19.8747 56.4603C19.8747 55.9835 19.7748 55.6122 19.575 55.3467C19.3806 55.0813 19.1105 54.9485 18.7648 54.9485Z" fill="white"/>
<path fill-rule="evenodd" clip-rule="evenodd" d="M86.1076 54.411C86.7244 54.411 87.1898 54.5687 87.5036 54.8839C87.8229 55.1937 87.9824 55.6394 87.9824 56.2209V58.8625H87.0897L87.0546 58.1441C87.0052 58.2565 86.9387 58.3602 86.8542 58.4549C86.719 58.6125 86.5432 58.7375 86.3268 58.8299C86.1104 58.9169 85.8668 58.9603 85.5962 58.9603C85.1471 58.9603 84.7845 58.8571 84.5085 58.6506C84.2326 58.4386 84.0945 58.1451 84.0945 57.7702C84.0945 57.3951 84.211 57.1014 84.4436 56.8894C84.6763 56.6775 85.0308 56.5252 85.507 56.4329L86.9435 56.1476C86.9435 55.8378 86.8731 55.6069 86.7324 55.4547C86.5917 55.2971 86.3835 55.2181 86.1076 55.2181C85.8587 55.2181 85.6612 55.2779 85.5151 55.3974C85.3744 55.5116 85.2769 55.6774 85.2228 55.8948L84.1676 55.846C84.2542 55.3841 84.4653 55.0307 84.8008 54.7861C85.1363 54.5361 85.5719 54.411 86.1076 54.411ZM85.8234 57.0853C85.5908 57.1342 85.4231 57.2076 85.3203 57.3054C85.2229 57.3978 85.1742 57.52 85.1742 57.6721C85.1742 57.8406 85.2283 57.971 85.3365 58.0634C85.4501 58.1558 85.6097 58.2021 85.8153 58.2021C86.048 58.2021 86.2484 58.1558 86.4161 58.0634C86.5838 57.971 86.7136 57.8433 86.8056 57.6802C86.8976 57.5172 86.9435 57.3242 86.9435 57.1014V56.8568L85.8234 57.0853Z" fill="white"/>
<path d="M89.4451 58.8625H88.4062V54.5089H89.4451V58.8625Z" fill="white"/>
<path d="M14.563 54.2007C14.914 54.2007 15.2246 54.2631 15.4946 54.3877C15.77 54.5069 15.9913 54.6831 16.1587 54.916C16.3315 55.149 16.4423 55.4335 16.4909 55.7695L15.5917 55.8181C15.5485 55.5364 15.4351 55.3224 15.2515 55.1761C15.0679 55.0244 14.8384 54.9485 14.563 54.9485C14.2011 54.9485 13.9175 55.084 13.7123 55.3549C13.5125 55.6204 13.4126 55.9889 13.4126 56.4603C13.4126 56.9317 13.5125 57.3029 13.7123 57.5738C13.9175 57.8393 14.2011 57.9721 14.563 57.9721C14.8384 57.9721 15.0679 57.8962 15.2515 57.7445C15.4351 57.5874 15.5485 57.3516 15.5917 57.0374L16.4909 57.0862C16.4423 57.4167 16.3315 57.7038 16.1587 57.9476C15.9913 58.1914 15.77 58.3811 15.4946 58.5165C15.2246 58.652 14.914 58.7198 14.563 58.7198C14.1525 58.7198 13.7933 58.6277 13.4854 58.4434C13.1777 58.2592 12.9401 57.9964 12.7727 57.6551C12.6053 57.3137 12.5215 56.9154 12.5215 56.4603C12.5215 56.0051 12.6053 55.6096 12.7727 55.2736C12.9401 54.9323 13.1777 54.6695 13.4854 54.4853C13.7933 54.2956 14.1525 54.2007 14.563 54.2007Z" fill="white"/>
<path d="M10.7227 54.2007C11.0252 54.2007 11.2818 54.2658 11.4924 54.3959C11.7084 54.5205 11.8705 54.7047 11.9785 54.9485C12.0919 55.1923 12.1486 55.4904 12.1486 55.8426V58.6223H11.2898V56.0539C11.2898 55.68 11.2223 55.3982 11.0873 55.2085C10.9523 55.0189 10.7471 54.9242 10.4716 54.9242C10.2934 54.9242 10.1369 54.9703 10.0018 55.0624C9.86684 55.1545 9.76149 55.2872 9.68588 55.4606C9.61569 55.634 9.58051 55.8425 9.5805 56.0863V58.6223H8.76238V56.0863C8.76237 55.7179 8.70021 55.4335 8.57602 55.233C8.4572 55.0271 8.25198 54.9242 7.96035 54.9242C7.77673 54.9242 7.61743 54.9703 7.48242 55.0624C7.35283 55.1545 7.25018 55.2898 7.17458 55.4686C7.09898 55.642 7.06125 55.8479 7.06124 56.0863V58.6223H6.20245V54.2983H6.98822L7.00483 55.0325C7.04855 54.9211 7.10221 54.8198 7.16645 54.729C7.29066 54.5611 7.44194 54.431 7.62015 54.3389C7.79837 54.2468 7.99285 54.2007 8.20347 54.2007C8.57066 54.2007 8.87036 54.3064 9.10257 54.5177C9.2724 54.6683 9.39564 54.8611 9.47304 55.0957C9.51825 54.9598 9.57574 54.8403 9.64539 54.7372C9.76419 54.5638 9.91533 54.431 10.0989 54.3389C10.2825 54.2468 10.4905 54.2007 10.7227 54.2007Z" fill="white"/>
<path d="M89.4694 53.9301H88.3899V53.0006H89.4694V53.9301Z" fill="white"/>
<path fill-rule="evenodd" clip-rule="evenodd" d="M20.477 47.623C20.7849 47.623 21.055 47.6934 21.2872 47.8342C21.5248 47.9751 21.6949 48.1649 21.7975 48.4033V47.7205H22.6238V51.7032C22.6237 52.0607 22.5428 52.3614 22.3808 52.6052C22.2242 52.8545 21.9973 53.0414 21.7003 53.166C21.4086 53.296 21.0603 53.3611 20.6553 53.3611C20.3151 53.3611 20.0154 53.3096 19.7562 53.2066C19.4969 53.1037 19.2835 52.9574 19.1161 52.7677C18.9487 52.5835 18.8353 52.3668 18.7759 52.1176L19.6671 52.0606C19.7265 52.2394 19.8291 52.3804 19.9749 52.4834C20.1261 52.5917 20.3529 52.6459 20.6553 52.6459C21.0117 52.6459 21.2846 52.57 21.4736 52.4183C21.6679 52.2665 21.7651 52.0363 21.7651 51.7275V51.1016C21.6625 51.3238 21.4978 51.4999 21.2709 51.6299C21.0441 51.7599 20.7904 51.825 20.5096 51.825C20.1478 51.825 19.8264 51.7356 19.5456 51.5568C19.2648 51.378 19.046 51.1315 18.8894 50.8172C18.7328 50.503 18.6544 50.1398 18.6544 49.728C18.6544 49.3108 18.7301 48.945 18.8813 48.6308C19.0379 48.3165 19.2539 48.07 19.5293 47.8912C19.8101 47.7124 20.126 47.623 20.477 47.623ZM20.6471 48.3545C20.2961 48.3546 20.0234 48.4791 19.829 48.7283C19.64 48.9722 19.5456 49.3028 19.5456 49.72C19.5456 50.1426 19.6427 50.4786 19.8372 50.7278C20.037 50.9716 20.307 51.0934 20.6471 51.0934C20.982 51.0934 21.2494 50.9716 21.4492 50.7278C21.6544 50.484 21.7597 50.148 21.7651 49.72C21.7705 49.4382 21.7273 49.197 21.6355 48.9966C21.5437 48.7907 21.4114 48.6336 21.2386 48.5252C21.0712 48.4114 20.874 48.3545 20.6471 48.3545Z" fill="white"/>
<path fill-rule="evenodd" clip-rule="evenodd" d="M10.6945 47.623C11.1049 47.623 11.464 47.7179 11.7719 47.9075C12.0797 48.0917 12.3174 48.3518 12.4848 48.6877C12.6522 49.0237 12.7358 49.4219 12.7358 49.8825C12.7358 50.3376 12.6522 50.7359 12.4848 51.0773C12.3174 51.4186 12.0797 51.6814 11.7719 51.8657C11.464 52.0499 11.1049 52.142 10.6945 52.1421C10.2841 52.1421 9.92484 52.0499 9.61701 51.8657C9.30919 51.6814 9.07151 51.4186 8.9041 51.0773C8.73668 50.7359 8.65302 50.3376 8.65302 49.8825C8.65302 49.4219 8.73669 49.0236 8.9041 48.6877C9.07151 48.3518 9.3092 48.0917 9.61701 47.9075C9.92484 47.7179 10.2841 47.623 10.6945 47.623ZM10.6945 48.3707C10.3327 48.3707 10.0491 48.5062 9.84387 48.7771C9.64404 49.0426 9.54416 49.4111 9.54416 49.8825C9.54417 50.3539 9.64405 50.7251 9.84387 50.996C10.0491 51.2615 10.3327 51.3943 10.6945 51.3943C11.0617 51.3943 11.3452 51.2615 11.545 50.996C11.7448 50.7251 11.8447 50.3539 11.8447 49.8825C11.8447 49.4111 11.7448 49.0426 11.545 48.7771C11.3452 48.5062 11.0617 48.3707 10.6945 48.3707Z" fill="white"/>
<path fill-rule="evenodd" clip-rule="evenodd" d="M31.5707 47.623C32.1539 47.623 32.5968 47.7802 32.8993 48.0945C33.2071 48.4033 33.3611 48.8395 33.3611 49.403V52.0445H32.5996L32.576 51.348C32.5275 51.456 32.4599 51.5556 32.3727 51.6462C32.2269 51.7979 32.0433 51.9199 31.8219 52.012C31.6059 52.0987 31.371 52.142 31.1172 52.1421C30.6689 52.1421 30.3097 52.0391 30.0396 51.8332C29.775 51.6273 29.6427 51.3373 29.6427 50.9634C29.6427 50.5896 29.7535 50.2997 29.9749 50.0938C30.2018 49.8825 30.5501 49.7307 31.0199 49.6386L32.5023 49.3542C32.5023 49.0183 32.4241 48.769 32.2675 48.6065C32.1109 48.4385 31.8785 48.3545 31.5707 48.3545C31.2953 48.3546 31.0793 48.4167 30.9227 48.5414C30.7661 48.6606 30.6581 48.8394 30.5987 49.0778L29.7157 49.0209C29.7967 48.5874 29.9965 48.2461 30.3151 47.9969C30.6391 47.7477 31.0577 47.623 31.5707 47.623ZM31.2386 50.2483C30.9795 50.2971 30.7959 50.3756 30.6878 50.4839C30.5852 50.5868 30.5338 50.7196 30.5338 50.8822C30.5338 51.0664 30.596 51.2099 30.7202 51.3129C30.8498 51.4104 31.0281 51.4592 31.2549 51.4592C31.5141 51.4592 31.7354 51.4104 31.919 51.3129C32.1026 51.2099 32.2459 51.0691 32.3485 50.8903C32.4511 50.7115 32.5023 50.5083 32.5023 50.2808V50.0044L31.2386 50.2483Z" fill="white"/>
<path d="M7.51477 47.7205H8.657V48.4276H7.51477V50.8091C7.51478 51.0095 7.55802 51.1476 7.64438 51.2235C7.73078 51.2993 7.86313 51.3374 8.04133 51.3374H8.657V52.0445H7.85497C7.44457 52.0445 7.14214 51.9496 6.94773 51.7599C6.75333 51.5703 6.65616 51.2749 6.65616 50.874V48.4276H6V47.7205H6.65616V46.7045H7.51477V47.7205Z" fill="white"/>
<path d="M17.1189 46.9809H16.4709C16.3035 46.9809 16.1792 47.027 16.0981 47.1191C16.0172 47.2058 15.9767 47.3304 15.9767 47.4929V47.7775H17.054V48.4764H15.9767V52.0445H15.1179V48.4764H14.5185V47.7775H15.1179V47.4441C15.1179 47.0865 15.218 46.8021 15.4178 46.5908C15.6176 46.3795 15.9307 46.2738 16.3574 46.2738H17.1189V46.9809Z" fill="white"/>
<path d="M18.2729 52.0445H17.4143V47.7205H18.2729V52.0445Z" fill="white"/>
<path d="M27.8767 47.623C28.1791 47.623 28.4356 47.6881 28.6462 47.8181C28.8622 47.9427 29.0242 48.1269 29.1322 48.3707C29.2456 48.6145 29.3023 48.9126 29.3023 49.2648V52.0445H28.4437V49.4761C28.4437 49.1022 28.3761 48.8204 28.2411 48.6308C28.1061 48.4412 27.9008 48.3464 27.6254 48.3464C27.4472 48.3464 27.2906 48.3925 27.1556 48.4846C27.0206 48.5767 26.9153 48.7095 26.8397 48.8828C26.7695 49.0562 26.7345 49.2648 26.7344 49.5085V52.0445H25.9161V49.5085C25.9161 49.1401 25.854 48.8557 25.7298 48.6552C25.611 48.4493 25.4057 48.3464 25.1141 48.3464C24.9305 48.3464 24.7712 48.3925 24.6362 48.4846C24.5066 48.5767 24.4039 48.7121 24.3284 48.8908C24.2528 49.0642 24.215 49.2702 24.215 49.5085V52.0445H23.3564V47.7205H24.1422L24.1586 48.4551C24.2023 48.3435 24.2561 48.2422 24.3204 48.1513C24.4446 47.9833 24.5957 47.8532 24.7739 47.7611C24.9521 47.669 25.1466 47.623 25.3572 47.623C25.7244 47.623 26.0241 47.7287 26.2563 47.94C26.4262 48.0906 26.5496 48.2834 26.627 48.5181C26.6722 48.3822 26.7295 48.2626 26.7992 48.1594C26.918 47.986 27.0692 47.8533 27.2529 47.7611C27.4365 47.669 27.6445 47.623 27.8767 47.623Z" fill="white"/>
<path d="M18.2892 47.0947H17.398V46.2332H18.2892V47.0947Z" fill="white"/>
<path fill-rule="evenodd" clip-rule="evenodd" d="M10.6945 41.0452C11.1049 41.0452 11.464 41.1401 11.7719 41.3297C12.0797 41.5139 12.3174 41.774 12.4848 42.1099C12.6522 42.4459 12.7358 42.8442 12.7358 43.3047C12.7358 43.7599 12.6522 44.1582 12.4848 44.4995C12.3174 44.8409 12.0797 45.1037 11.7719 45.2879C11.464 45.4721 11.1049 45.5643 10.6945 45.5643C10.2841 45.5643 9.92484 45.4721 9.61701 45.2879C9.30919 45.1037 9.07151 44.8409 8.9041 44.4995C8.73668 44.1582 8.65302 43.7599 8.65302 43.3047C8.65302 42.8442 8.73669 42.4459 8.9041 42.1099C9.07151 41.774 9.3092 41.5139 9.61701 41.3297C9.92484 41.1401 10.2841 41.0452 10.6945 41.0452ZM10.6945 41.7929C10.3327 41.7929 10.0491 41.9284 9.84387 42.1993C9.64404 42.4648 9.54416 42.8333 9.54416 43.3047C9.54417 43.7761 9.64405 44.1473 9.84387 44.4183C10.0491 44.6837 10.3327 44.8165 10.6945 44.8165C11.0617 44.8165 11.3452 44.6837 11.545 44.4183C11.7448 44.1473 11.8447 43.7761 11.8447 43.3047C11.8447 42.8333 11.7448 42.4648 11.545 42.1993C11.3452 41.9284 11.0617 41.7929 10.6945 41.7929Z" fill="white"/>
<path d="M7.51477 41.1427H8.657V41.8499H7.51477V44.2313C7.51478 44.4317 7.55802 44.5698 7.64438 44.6457C7.73078 44.7215 7.86313 44.7596 8.04133 44.7596H8.657V45.4667H7.85497C7.44457 45.4667 7.14214 45.3718 6.94773 45.1822C6.75333 44.9925 6.65616 44.6972 6.65616 44.2962V41.8499H6V41.1427H6.65616V40.1268H7.51477V41.1427Z" fill="white"/>
<path d="M17.6378 41.0452C17.9403 41.0452 18.1969 41.1103 18.4075 41.2403C18.6235 41.3649 18.7856 41.5491 18.8936 41.7929C19.007 42.0367 19.0637 42.3348 19.0637 42.687V45.4667H18.2049V42.8983C18.2049 42.5244 18.1374 42.2426 18.0024 42.053C17.8674 41.8634 17.6622 41.7686 17.3868 41.7686C17.2085 41.7686 17.052 41.8147 16.917 41.9068C16.782 41.9989 16.6766 42.1317 16.601 42.3051C16.5308 42.4784 16.4956 42.687 16.4956 42.9308V45.4667H15.6775V42.9308C15.6775 42.5623 15.6153 42.2779 15.4911 42.0775C15.3723 41.8716 15.1671 41.7686 14.8755 41.7686C14.6919 41.7686 14.5325 41.8147 14.3975 41.9068C14.268 41.9989 14.1653 42.1343 14.0897 42.3131C14.0141 42.4864 13.9764 42.6924 13.9764 42.9308V45.4667H13.1176V41.1427H13.9033L13.9199 41.8775C13.9637 41.7659 14.0172 41.6644 14.0816 41.5735C14.2058 41.4055 14.3571 41.2755 14.5353 41.1834C14.7135 41.0913 14.908 41.0452 15.1186 41.0452C15.4858 41.0452 15.7855 41.1509 16.0177 41.3622C16.1875 41.5128 16.3108 41.7055 16.3882 41.9401C16.4334 41.8043 16.4909 41.6848 16.5605 41.5816C16.6793 41.4083 16.8305 41.2755 17.014 41.1834C17.1976 41.0913 17.4056 41.0452 17.6378 41.0452Z" fill="white"/>
</svg>
