<svg width="18" height="18" viewBox="0 0 18 18" fill="none" xmlns="http://www.w3.org/2000/svg">
<g clip-path="url(#clip0_11_438)">
<path d="M12.3495 5.625C11.7322 3.17775 10.464 1.5 9 1.5C6.92925 1.5 5.25 4.85775 5.25 9C5.25 13.1422 6.92925 16.5 9 16.5C9.2565 16.5 9.50775 16.4482 9.75 16.35" stroke="#1AE7AD" stroke-width="2" stroke-linecap="round" stroke-linejoin="round"/>
<path d="M11.3955 10.2803L14.256 11.6753L12.861 14.5358" stroke="#1AE7AD" stroke-width="2" stroke-linecap="round" stroke-linejoin="round"/>
<path d="M14.25 11.6775C12.897 12.3412 11.0445 12.75 9 12.75C4.85775 12.75 1.5 11.0707 1.5 9C1.5 6.92925 4.85775 5.25 9 5.25C12.6285 5.25 15.6547 6.5385 16.35 8.25" stroke="#1AE7AD" stroke-width="2" stroke-linecap="round" stroke-linejoin="round"/>
</g>
<defs>
<clipPath id="clip0_11_438">
<rect width="18" height="18" fill="white"/>
</clipPath>
</defs>
</svg>
