<svg width="65" height="14" viewBox="0 0 65 14" fill="none" xmlns="http://www.w3.org/2000/svg">
<path fill-rule="evenodd" clip-rule="evenodd" d="M4.55139 3.21885C5.92827 3.21885 6.97369 3.59378 7.68763 4.34354C8.4143 5.08038 8.77763 6.12095 8.77764 7.46533V13.7673H6.98011L6.92454 12.1072C6.80993 12.3645 6.65 12.6012 6.44464 12.8172C6.10042 13.1791 5.66691 13.47 5.1442 13.6898C4.63426 13.8966 4.07964 14 3.48046 14C2.42234 14 1.57457 13.7543 0.937139 13.2631C0.312442 12.7719 0 12.0803 0 11.1883C4.86705e-06 10.2964 0.261395 9.60484 0.78406 9.11362C1.31951 8.60947 2.14189 8.24749 3.25105 8.02773L6.75059 7.34903C6.75059 6.54755 6.56576 5.9529 6.19605 5.56509C5.82633 5.16435 5.27807 4.96399 4.55139 4.96399C3.90121 4.96399 3.39125 5.11266 3.02154 5.40998C2.65182 5.69437 2.3969 6.12099 2.25666 6.68978L0.172162 6.55402C0.363396 5.51986 0.835122 4.70547 1.58731 4.11082C2.35224 3.51619 3.34026 3.21886 4.55139 3.21885ZM3.76733 9.482C3.15541 9.59834 2.72197 9.78576 2.46699 10.0443C2.22477 10.2899 2.10359 10.6066 2.10358 10.9944C2.10358 11.4339 2.25021 11.7765 2.54342 12.0221C2.8494 12.2548 3.27015 12.3712 3.8056 12.3712C4.41754 12.3712 4.94025 12.2548 5.37372 12.0221C5.80718 11.7765 6.14506 11.4405 6.38729 11.0139C6.62952 10.5873 6.75059 10.1024 6.75059 9.5595V8.90025L3.76733 9.482Z" fill="white"/>
<path fill-rule="evenodd" clip-rule="evenodd" d="M21.128 3.21885C22.0459 3.21886 22.8554 3.4386 23.5566 3.8781C24.2578 4.3047 24.7996 4.92525 25.1821 5.73965C25.5773 6.55405 25.7749 7.53649 25.7749 8.68698V9.21047H18.4698C18.5208 10.2188 18.7821 10.975 19.2538 11.4792C19.7383 11.9834 20.3885 12.2354 21.2044 12.2354C21.8036 12.2354 22.3009 12.0933 22.6961 11.8089C23.0913 11.5245 23.3654 11.1431 23.5183 10.6648L25.6219 10.8005C25.3542 11.7571 24.8251 12.5327 24.0347 13.1274C23.257 13.7091 22.3072 14 21.1853 14C20.1909 14 19.3303 13.7803 18.6037 13.3408C17.8897 12.9012 17.3351 12.2742 16.9399 11.4599C16.5574 10.6455 16.3663 9.69524 16.3663 8.60937C16.3663 7.52352 16.5574 6.57982 16.9399 5.77835C17.3351 4.96397 17.8897 4.33707 18.6037 3.89756C19.3176 3.44511 20.1591 3.21885 21.128 3.21885ZM21.128 4.96399C20.4013 4.96399 19.8021 5.19668 19.3304 5.66204C18.8714 6.11449 18.5845 6.78023 18.4698 7.65925H23.6332C23.5694 6.74145 23.308 6.06275 22.8491 5.62324C22.4029 5.18373 21.8292 4.964 21.128 4.96399Z" fill="white"/>
<path fill-rule="evenodd" clip-rule="evenodd" d="M46.6183 3.21885C47.9952 3.21885 49.0406 3.59378 49.7546 4.34354C50.4813 5.08038 50.8447 6.12095 50.8447 7.46533V13.7673H49.0471L48.9915 12.1072C48.8769 12.3645 48.717 12.6012 48.5116 12.8172C48.1674 13.1791 47.7339 13.47 47.2112 13.6898C46.7012 13.8966 46.1467 14 45.5475 14C44.4894 14 43.6415 13.7544 43.0041 13.2631C42.3794 12.7719 42.0671 12.0803 42.0671 11.1883C42.0671 10.2964 42.3284 9.60484 42.8511 9.11362C43.3866 8.60947 44.2088 8.24749 45.318 8.02773L48.8175 7.34903C48.8175 6.54755 48.6327 5.9529 48.263 5.56509C47.8933 5.16435 47.345 4.96399 46.6183 4.96399C45.9682 4.964 45.4582 5.11266 45.0885 5.40998C44.7188 5.69437 44.4639 6.12099 44.3236 6.68978L42.2391 6.55402C42.4303 5.51986 42.9021 4.70547 43.6543 4.11082C44.4192 3.51619 45.4072 3.21886 46.6183 3.21885ZM45.8343 9.482C45.2224 9.59834 44.7889 9.78576 44.5339 10.0443C44.2917 10.2899 44.1705 10.6066 44.1705 10.9944C44.1705 11.4339 44.3172 11.7765 44.6104 12.0221C44.9163 12.2548 45.3371 12.3712 45.8725 12.3712C46.4845 12.3712 47.0072 12.2548 47.4407 12.0221C47.8741 11.7765 48.212 11.4405 48.4542 11.0139C48.6965 10.5873 48.8175 10.1024 48.8175 9.5595V8.90025L45.8343 9.482Z" fill="white"/>
<path fill-rule="evenodd" clip-rule="evenodd" d="M54.0292 4.90584C54.2969 4.45339 54.6921 4.05909 55.2148 3.72299C55.7502 3.3869 56.3686 3.21885 57.0698 3.21885C57.9494 3.21886 58.7144 3.43859 59.3646 3.8781C60.0148 4.31762 60.512 4.94461 60.8562 5.759C61.2132 6.56047 61.3916 7.5106 61.3917 8.60937C61.3917 9.70817 61.2132 10.6648 60.8562 11.4792C60.512 12.2807 60.0148 12.9012 59.3646 13.3408C58.7144 13.7803 57.9494 14 57.0698 14C56.3686 14 55.7439 13.8448 55.1957 13.5346C54.6603 13.2114 54.2458 12.7719 53.9526 12.2161L53.8953 13.7673H52.002V0H54.0292V4.90584ZM56.7637 5.00279C56.19 5.0028 55.6992 5.14494 55.2912 5.42932C54.8833 5.71371 54.5709 6.1274 54.3542 6.67032C54.1375 7.20032 54.0292 7.8467 54.0292 8.60937C54.0292 9.34621 54.1375 9.98615 54.3542 10.5291C54.5709 11.072 54.8833 11.4921 55.2912 11.7894C55.6992 12.0738 56.1837 12.2161 56.7446 12.2161C57.5223 12.2161 58.1407 11.8994 58.5996 11.2659C59.0586 10.6196 59.2881 9.73402 59.2881 8.60937C59.2881 7.48474 59.0586 6.60568 58.5996 5.97227C58.1407 5.32593 57.5287 5.00279 56.7637 5.00279Z" fill="white"/>
<path d="M12.1725 13.7673H10.1455V0H12.1725V13.7673Z" fill="white"/>
<path d="M15.629 13.7673H13.6018V0H15.629V13.7673Z" fill="white"/>
<path d="M31.2903 3.21885C32.0552 3.21886 32.6862 3.39342 33.1834 3.74245C33.6934 4.07855 34.0759 4.54391 34.3309 5.13856C34.5986 5.72026 34.7325 6.38602 34.7325 7.13576V13.7673H32.7054V7.75621C32.7054 7.14865 32.6417 6.638 32.5142 6.22434C32.3867 5.81069 32.1763 5.49397 31.8831 5.27421C31.5899 5.05445 31.2073 4.94464 30.7356 4.94464C30.0217 4.94465 29.4416 5.18376 28.9954 5.66204C28.5492 6.14034 28.3261 6.8384 28.3261 7.75621V13.7673H26.299V3.45157H28.154L28.2033 5.22818C28.3162 4.92753 28.4592 4.665 28.6321 4.4405C28.9509 4.02684 29.3396 3.72298 29.7986 3.52908C30.2575 3.32224 30.7548 3.21885 31.2903 3.21885Z" fill="white"/>
<path d="M41.4254 13.7673H39.3982V0H41.4254V13.7673Z" fill="white"/>
<path d="M61.9931 0.641496C61.8082 0.827455 61.6221 1.01226 61.436 1.19698C61.6408 1.47964 61.8432 1.7586 62.048 2.03877C62.0418 2.03877 62.038 2.03994 62.0343 2.03994H61.7495C61.7408 2.03994 61.7345 2.03626 61.7295 2.03006C61.5734 1.81435 61.4161 1.59981 61.26 1.3841C61.2575 1.38038 61.2549 1.37668 61.2486 1.37049C61.2449 1.37544 61.2437 1.37921 61.2399 1.38293C61.18 1.44242 61.1213 1.5019 61.0614 1.56015C61.0539 1.56759 61.0514 1.57383 61.0514 1.58375V2.03877H60.8028V0.642771H61.0514V1.28246C61.0551 1.28001 61.0564 1.27997 61.0576 1.27874C61.1613 1.17337 61.2662 1.06804 61.3698 0.962669C61.4585 0.873411 61.5459 0.784123 61.6346 0.694865C61.6496 0.678749 61.6658 0.663884 61.6808 0.647768C61.6846 0.644049 61.6896 0.641496 61.6933 0.641496H61.9931Z" fill="white"/>
<path fill-rule="evenodd" clip-rule="evenodd" d="M63.6401 0.604392C63.7388 0.604393 63.8387 0.608089 63.9361 0.629163C63.9961 0.641561 64.0523 0.66385 64.1009 0.701031C64.1609 0.744422 64.1997 0.802701 64.2209 0.873365C64.2434 0.947747 64.247 1.02462 64.2358 1.10024C64.222 1.19322 64.1709 1.26261 64.0972 1.31839C64.0447 1.35806 63.9836 1.37669 63.9211 1.38909C63.9099 1.39157 63.8999 1.39278 63.8886 1.39526C63.9136 1.40146 63.9374 1.40526 63.9611 1.41269C64.0335 1.43501 64.0897 1.4784 64.1297 1.5441C64.1646 1.60112 64.1934 1.65938 64.2009 1.72632C64.2034 1.74243 64.2034 1.75858 64.2034 1.77469C64.2034 1.8441 64.2021 1.91355 64.2046 1.98296C64.2046 2.00897 64.2121 2.03498 64.2159 2.06099C64.2171 2.06595 64.2221 2.06975 64.2258 2.07471C64.1447 2.07595 64.0623 2.07588 63.9798 2.07588V1.86272C63.9786 1.80197 63.9698 1.74242 63.9486 1.68539C63.9124 1.59241 63.8449 1.53658 63.7462 1.51922C63.6888 1.50931 63.6301 1.50689 63.5715 1.50689H63.3579C63.3541 1.50689 63.3504 1.50693 63.3454 1.50816V2.08832H63.0843V0.604392H63.0981C63.2792 0.604392 63.459 0.603153 63.6401 0.604392ZM63.3678 0.789059C63.3641 0.789059 63.3604 0.789097 63.3566 0.790335V1.32095C63.3591 1.32095 63.3616 1.3221 63.3641 1.32211C63.4602 1.32211 63.5552 1.32342 63.6514 1.32095C63.7225 1.31971 63.7924 1.30972 63.8574 1.27874C63.9211 1.24899 63.9649 1.20317 63.9811 1.135C63.9936 1.08295 63.9947 1.02961 63.9835 0.977553C63.9648 0.890788 63.9136 0.834984 63.8262 0.81266C63.7651 0.797785 63.7026 0.791575 63.6401 0.790335C63.549 0.789095 63.459 0.789059 63.3678 0.789059Z" fill="white"/>
<path fill-rule="evenodd" clip-rule="evenodd" d="M63.6002 0.010525C63.6851 0.010525 63.77 0.0142178 63.855 0.0278541C63.9774 0.0476898 64.0948 0.0824539 64.2072 0.135762C64.3395 0.197748 64.457 0.280789 64.5631 0.379964C64.6967 0.50393 64.8016 0.648996 64.8778 0.815106C64.9802 1.03949 65.0189 1.27504 64.9914 1.5205C64.9752 1.66801 64.9327 1.80811 64.8678 1.94075C64.7804 2.12175 64.658 2.27552 64.5019 2.40322C64.3083 2.55942 64.0898 2.65732 63.8425 2.69452C63.82 2.69699 63.7963 2.70075 63.7726 2.70323H61.1824C61.1624 2.70075 61.1424 2.69823 61.1224 2.69452C60.9663 2.6722 60.8177 2.62515 60.6778 2.55078C60.4118 2.40821 60.212 2.20237 60.0833 1.93087C59.9647 1.68168 59.9285 1.42007 59.9709 1.14734C60.0009 0.953952 60.0721 0.776674 60.1808 0.614279C60.3194 0.408484 60.5005 0.25223 60.7241 0.144374C60.9089 0.0551288 61.1037 0.0105266 61.3085 0.010525H63.6002ZM61.3047 0.211351C61.2273 0.211354 61.1499 0.220012 61.0737 0.236122C60.8352 0.288191 60.6316 0.403511 60.4655 0.580791C60.2994 0.758072 60.1982 0.967603 60.1645 1.20687C60.1458 1.34198 60.1508 1.4771 60.182 1.61097C60.2395 1.8589 60.3656 2.06721 60.5604 2.23333C60.774 2.41433 61.0213 2.51105 61.3023 2.51229C61.8418 2.51477 62.3813 2.51357 62.9208 2.51357C62.9245 2.50985 62.9296 2.50985 62.9334 2.50985V2.5073C62.9321 2.50606 62.9308 2.50486 62.9296 2.50485C62.8172 2.43667 62.7172 2.35239 62.6286 2.25693C62.5124 2.13172 62.4238 1.99032 62.3663 1.8304C62.3164 1.69404 62.2914 1.55273 62.2864 1.4077C62.2814 1.26265 62.2951 1.12008 62.3351 0.979998C62.3988 0.758086 62.5174 0.56962 62.6761 0.404736C62.7447 0.332842 62.8246 0.274541 62.9083 0.221238C62.912 0.218759 62.9159 0.216276 62.9196 0.213796C62.9196 0.2126 62.9184 0.212576 62.9184 0.211351H61.3047ZM63.549 0.208906C63.5141 0.208906 63.4778 0.206392 63.4428 0.211351C63.3679 0.22127 63.2955 0.241138 63.2256 0.267166C63.057 0.330392 62.9121 0.427122 62.7859 0.553574C62.7123 0.627951 62.6523 0.712215 62.6023 0.803943C62.5174 0.961384 62.4774 1.13123 62.4724 1.30851C62.4687 1.44858 62.4849 1.58496 62.5286 1.7176C62.5898 1.9048 62.6947 2.06602 62.8371 2.20239C62.9283 2.29041 63.0332 2.36111 63.1493 2.41193C63.3704 2.50863 63.6002 2.53339 63.8375 2.49124C64.0947 2.44538 64.3108 2.32388 64.4869 2.13297C64.6592 1.94577 64.7592 1.7263 64.7854 1.4734C64.7979 1.35439 64.7916 1.23537 64.7654 1.11884C64.7104 0.87462 64.5893 0.668772 64.402 0.50265C64.2534 0.370021 64.0823 0.282027 63.8875 0.237398C63.7851 0.215086 63.6827 0.206429 63.579 0.208906H63.549Z" fill="white"/>
</svg>
